PathFileType	4	(X/Y/Z)	D:\TRACE\spot_10-12-23\spot_body_motion_2_5-platform.trc
DataRate	CameraRate	NumFrames	NumMarkers	Units	OrigDataRate	OrigDataStartFrame	OrigNumFrames
100.00	100.00	      72	5	mm	100.00	6126	      7000
Frame#	Time	Left_Front			Right_Front			Left_Aft			Right_Aft			Post			
		X1	Y1	Z1	X2	Y2	Z2	X3	Y3	Z3	X4	Y4	Z4	X5	Y5	Z5	

6126	61.250	-731.15698	50.10991	-629.46198	841.48950	54.90729	-622.73846	-647.61652	-25.29188	505.96268	769.51117	-25.79185	591.70056	51.48539	807.30756	-898.46490	
6127	61.260	-730.84540	51.55101	-629.28308	841.87811	56.03577	-622.51288	-647.51440	-25.92849	506.07117	769.81982	-26.63738	591.93475	51.63744	808.80518	-896.95905	
6128	61.270	-730.66296	52.64207	-628.91479	841.98425	57.19673	-622.03638	-647.38214	-26.63420	506.17737	769.87073	-27.43317	592.13806	52.01138	810.31439	-895.40649	
6129	61.280	-730.60352	53.68854	-628.60681	842.08722	58.43082	-621.89996	-647.24408	-27.52271	506.37070	769.93512	-28.48275	592.36267	52.06611	811.90387	-893.65656	
6130	61.290	-730.42914	54.37862	-628.20911	842.20148	59.31122	-621.54517	-647.17004	-28.17303	506.52182	770.28363	-29.36375	592.70941	52.36865	813.35376	-892.12653	
6131	61.300	-730.55377	55.66342	-627.96558	842.15314	60.17157	-621.14600	-647.25226	-28.86135	506.71017	770.26849	-30.07143	592.84729	52.08155	814.73792	-890.63403	
6132	61.310	-730.38989	56.61368	-627.69513	842.07782	61.03962	-620.98895	-647.17621	-29.65217	506.92111	770.18793	-30.95704	593.05670	52.09924	816.10492	-888.90057	
6133	61.320	-730.48352	57.62398	-627.28339	842.21680	62.39704	-620.60364	-647.15497	-30.31249	506.96521	770.13306	-31.82603	593.15668	52.06894	817.31915	-887.66064	
6134	61.330	-730.46997	58.39084	-626.98651	842.15112	63.05650	-620.37793	-647.08051	-30.87112	507.11362	770.39557	-32.60389	593.35474	52.15170	818.63507	-886.12708	
6135	61.340	-730.38959	59.39930	-626.70349	841.96930	63.94664	-620.09283	-647.02032	-31.59086	507.38290	770.38458	-33.07413	593.42548	51.84307	820.00806	-884.80927	
6136	61.350	-730.46924	60.27989	-626.60803	842.12512	64.67373	-619.64587	-647.13776	-32.23676	507.60632	770.24713	-33.79932	593.73199	51.79918	821.02661	-883.61462	
6137	61.360	-730.59332	60.74844	-626.29620	841.86499	65.61950	-619.38696	-647.47955	-32.79799	507.69327	769.99915	-34.85791	593.85907	51.85661	822.16785	-882.33881	
6138	61.370	-730.99524	61.70395	-625.82135	841.44244	66.45037	-619.10577	-647.79907	-33.28519	507.80130	769.81757	-35.29873	593.92950	51.31290	823.32092	-881.26837	
6139	61.380	-731.30493	62.53489	-625.60950	841.08142	67.17454	-618.92908	-648.13519	-33.73893	507.96381	769.33118	-36.03778	594.09845	51.13537	824.46924	-880.32990	
6140	61.390	-731.67218	63.32972	-625.27069	840.83600	67.79411	-618.64099	-648.31561	-34.38675	508.13895	768.87805	-36.47112	594.12714	50.72873	825.38397	-879.38770	
6141	61.400	-732.03168	64.16062	-625.18854	840.44775	68.35023	-618.51086	-648.71246	-34.93575	508.21490	768.28949	-37.20943	594.23022	50.30038	826.41211	-878.28217	
6142	61.410	-732.32635	64.50539	-625.04980	840.23383	69.07787	-618.27380	-648.81122	-35.41184	508.70676	768.11334	-37.49519	594.37878	49.98926	827.14203	-877.10626	
6143	61.420	-732.65277	65.10442	-624.84937	840.03632	69.84087	-618.02075	-649.15155	-35.79506	508.93710	767.78912	-38.15813	594.47601	49.72469	827.92847	-876.32568	
6144	61.430	-732.95386	65.63956	-624.50427	839.73590	70.24360	-617.89777	-649.57404	-36.20602	508.92337	767.55261	-38.60021	594.60046	49.37173	828.71631	-875.54968	
6145	61.440	-733.20892	66.05252	-624.33081	839.35242	70.74020	-617.71680	-649.92896	-36.59612	509.03723	767.22223	-39.20034	594.76733	49.17799	829.46326	-874.74146	
6146	61.450	-733.75439	66.56474	-624.20746	838.75067	71.35108	-617.60907	-650.30457	-36.94921	509.05133	766.99829	-39.64625	594.81775	48.64269	830.12616	-874.05804	
6147	61.460	-734.24969	67.04127	-623.98114	838.16986	71.60442	-617.46991	-650.88184	-37.26547	508.93591	766.51233	-40.03251	594.94611	48.09430	830.65643	-873.44672	
6148	61.470	-734.71710	67.52761	-623.89502	837.58057	72.01557	-617.30347	-651.54858	-37.62687	509.02582	765.87402	-40.47002	595.04797	47.43459	831.36133	-872.70294	
6149	61.480	-735.40363	68.38489	-623.80725	837.14185	72.39633	-617.07697	-651.83948	-37.84878	509.08713	765.25568	-40.83815	595.00647	46.97392	832.05035	-871.93658	
6150	61.490	-735.69122	68.65170	-623.79352	836.66071	72.89417	-617.05011	-652.20709	-38.22644	509.38974	764.72504	-41.12067	595.06665	46.65972	832.69043	-871.53796	
6151	61.500	-736.20819	68.83902	-623.65662	836.31366	73.26380	-616.88477	-652.88690	-38.38479	509.28104	764.84534	-40.37873	594.64178	46.52502	833.11755	-871.03577	
6152	61.510	-736.87097	69.14116	-623.49347	835.93372	73.58226	-616.76141	-653.34406	-38.58370	509.28055	764.27557	-40.66547	594.63409	45.77698	833.57104	-870.47333	
6153	61.520	-737.35150	69.25672	-623.32959	835.39880	73.68040	-616.65900	-653.76959	-38.71009	509.32211	763.81152	-40.86349	594.70105	45.02462	833.86224	-870.06445	
6154	61.530	-737.80676	69.34962	-623.16827	834.61285	73.88110	-616.65002	-654.45398	-38.95151	509.35843	763.37793	-41.13111	594.68488	44.41912	834.03943	-869.65161	
6155	61.540	-738.44965	69.55830	-623.20880	834.01569	74.11204	-616.53815	-655.10297	-39.12115	509.33829	762.63940	-41.49208	594.55365	43.93329	834.20056	-869.29541	
6156	61.550	-738.89960	69.81902	-623.25897	833.53748	74.37153	-616.44110	-655.62732	-39.15594	509.37369	761.43842	-42.34560	595.09796	43.47060	834.38782	-869.12878	
6157	61.560	-739.67920	70.00919	-623.16223	833.14209	74.52940	-616.41193	-656.12885	-39.18946	509.42999	760.93335	-42.42236	595.17023	42.94315	834.55750	-869.07928	
6158	61.570	-740.49146	70.25546	-623.02081	832.49164	74.49982	-616.49414	-656.78735	-39.37223	509.33624	760.78644	-41.64378	594.78094	42.22643	834.72052	-868.88208	
6159	61.580	-740.94305	70.23022	-623.05914	831.57892	74.51011	-616.43481	-657.55365	-39.39203	509.39859	760.44122	-41.75117	594.74438	41.56885	834.82715	-868.83063	
6160	61.590	-741.49365	70.20736	-623.13202	830.93103	74.44122	-616.38251	-658.11456	-39.44127	509.41763	759.45221	-41.86740	594.72064	40.96603	834.85706	-868.93066	
6161	61.600	-742.36774	70.35984	-623.17157	830.43463	74.51772	-616.42072	-658.92761	-39.31612	509.31772	758.65338	-41.79203	594.85870	40.34252	834.93329	-868.90979	
6162	61.610	-742.88275	70.12537	-623.11072	829.89490	74.63588	-616.44525	-659.58063	-39.24110	509.23145	758.19501	-41.64091	594.95416	39.31929	834.94293	-869.04620	
6163	61.620	-743.95813	70.06235	-623.09546	828.97473	74.60392	-616.53894	-660.37170	-39.07417	509.31479	757.49866	-41.50089	594.96265	38.65993	834.81061	-869.20984	
6164	61.630	-744.23883	69.87389	-623.25391	827.95813	74.37836	-616.57782	-660.97839	-39.12026	509.33606	756.54248	-41.57549	594.82928	37.97086	834.38257	-869.29144	
6165	61.640	-745.08807	69.70050	-623.36743	827.26648	74.09896	-616.53864	-661.78021	-39.08852	509.31430	755.68597	-41.52945	594.67554	37.56491	834.06714	-869.32684	
6166	61.650	-745.85999	69.51180	-623.31506	826.78973	73.93613	-616.47327	-662.49213	-38.91272	509.33017	755.09235	-41.33676	594.67688	36.87957	833.86005	-869.70209	
6167	61.660	-746.69366	69.18932	-623.43359	826.01129	73.62558	-616.63452	-663.16449	-38.85175	509.31665	753.93127	-41.70851	595.23486	35.90154	833.76221	-870.13232	
6168	61.670	-747.60748	69.35376	-623.40259	824.99304	73.50426	-616.69556	-664.12537	-38.62767	509.13922	753.34064	-41.56039	595.20477	34.91817	833.38812	-870.44794	
6169	61.680	-748.31512	68.87049	-623.59863	824.22516	73.31846	-616.87311	-665.00940	-38.22363	509.08658	752.74487	-40.58507	594.49231	34.34071	832.86316	-870.70544	
6170	61.690	-749.12860	68.33591	-623.72107	823.39044	72.66695	-617.11041	-665.71429	-38.16423	509.13144	751.87994	-40.07005	594.52008	33.17714	832.36731	-871.41449	
6171	61.700	-749.97711	67.99192	-623.86877	822.54517	72.28567	-617.10706	-666.50079	-37.99584	509.10376	750.76019	-40.57373	595.24188	32.46868	831.77618	-871.83350	
6172	61.710	-750.77057	67.67820	-623.97174	821.70483	72.00290	-617.23492	-667.38110	-37.73260	509.08884	750.02679	-40.33428	595.09485	31.78385	831.29767	-872.43860	
6173	61.720	-751.67261	67.02289	-624.01569	821.12659	71.72489	-617.28369	-668.16986	-37.21079	508.91068	748.92224	-39.98516	594.93219	30.77497	830.68677	-873.27795	
6174	61.730	-752.53839	66.72871	-624.34302	820.21881	71.31871	-617.49353	-669.24554	-36.61049	508.82687	748.32043	-39.74498	594.89038	30.20787	830.12555	-873.92346	
6175	61.740	-753.50110	66.32433	-624.46252	818.92303	70.59608	-617.85571	-670.06274	-36.36545	508.70563	747.28424	-38.95887	594.73206	29.08485	829.16260	-874.80548	
6176	61.750	-754.40527	65.63911	-624.64490	818.00537	69.97285	-618.07471	-670.90662	-36.07924	508.88687	746.08246	-38.62019	594.66217	28.17829	828.25531	-875.60730	
6177	61.760	-755.28284	64.82137	-624.94135	817.27094	69.32226	-618.08417	-671.96704	-35.49007	508.47357	745.27911	-38.17715	594.52466	26.95241	827.52069	-876.76971	
6178	61.770	-756.29346	64.29084	-625.10010	816.37866	68.66679	-618.21497	-672.86151	-35.16865	508.51804	744.50714	-37.75238	594.47156	26.46738	826.77448	-877.60663	
6179	61.780	-757.25439	63.90633	-625.44928	815.31476	68.05716	-618.47687	-673.69446	-34.96584	508.43503	743.23230	-36.97418	594.18665	25.32366	825.85645	-878.80054	
6180	61.790	-758.15112	63.00366	-625.51953	814.51697	67.48152	-618.79199	-674.83545	-34.15684	508.07227	742.68915	-36.51418	593.98505	24.46839	824.92456	-879.67749	
6181	61.800	-759.08398	62.51910	-625.80652	813.45807	66.83006	-619.22455	-675.58569	-33.88984	508.23526	741.29431	-36.76147	594.26324	23.60318	823.98737	-881.00421	
6182	61.810	-760.09094	61.51797	-626.04059	812.37006	66.13773	-619.23480	-676.61810	-33.31481	508.11450	740.32025	-35.50414	594.07312	22.61863	822.80420	-882.04126	
6183	61.820	-761.16284	60.94061	-626.22693	811.58295	65.48755	-619.30286	-677.43201	-32.76437	508.05307	739.67273	-34.79202	593.74823	21.58241	821.98749	-883.12415	
6184	61.830	-762.11426	59.91528	-626.41388	810.41742	64.38879	-619.69336	-678.61218	-32.13414	507.88162	738.66235	-34.23181	593.58459	20.26540	820.95422	-884.25677	
6185	61.840	-763.17499	59.65685	-626.70825	809.45221	63.80104	-620.05145	-679.83234	-31.46799	507.28348	737.43988	-33.39190	593.56299	19.43841	819.86188	-885.34241	
6186	61.850	-764.22833	58.61987	-627.03711	808.28180	62.94077	-620.25385	-680.79364	-30.88773	507.16455	736.45447	-32.89156	593.51862	18.44898	818.67847	-886.58545	
6187	61.860	-765.26868	57.91333	-627.22101	807.56256	62.08725	-620.40570	-681.91858	-30.32494	507.04166	735.44049	-32.18088	593.26825	17.60751	817.39899	-887.36261	
6188	61.870	-766.22687	56.70732	-627.60980	806.37616	61.25631	-620.81848	-682.87592	-29.80189	506.82211	734.25781	-31.24684	593.02490	16.24636	816.20612	-888.72656	
6189	61.880	-767.30054	55.81222	-627.88770	805.23657	60.10736	-621.11597	-683.98938	-28.87117	506.60474	733.44458	-30.64997	592.85468	15.55900	814.69757	-889.86517	
6190	61.890	-768.23773	54.69271	-628.18762	804.48273	59.30695	-621.44617	-684.87933	-28.21433	506.52994	732.26208	-29.96826	592.67859	14.17145	813.51721	-891.27264	
6191	61.900	-769.39508	53.94948	-628.30481	803.10712	58.43340	-621.78619	-685.95416	-27.57562	506.40408	731.07550	-28.98984	592.62146	13.09777	812.24103	-892.80865	
6192	61.910	-770.38446	52.95639	-628.90698	802.12048	57.37123	-622.05475	-687.13385	-26.77888	506.09528	730.14972	-28.23641	592.43256	12.65368	810.67639	-894.04663	
6193	61.920	-771.51556	51.82114	-629.14215	801.04523	56.40256	-622.35028	-688.13751	-26.22667	505.96393	728.70551	-27.50321	592.17029	11.04844	809.37891	-895.79974	
6194	61.930	-772.55621	50.78512	-629.33459	799.84698	55.29928	-622.73621	-689.37909	-25.43636	505.82455	727.60541	-26.99177	592.05249	10.07364	807.81757	-897.62579	
6195	61.940	-773.68237	49.88639	-629.83789	798.81268	54.22498	-622.90088	-690.59222	-24.83554	505.64658	726.05426	-26.41435	591.78906	8.83444	806.29358	-899.25104	
6196	61.950	-774.78259	48.85011	-630.10645	797.87115	53.12533	-623.09778	-691.50287	-23.93515	505.34186	725.70203	-24.57904	591.62720	8.16644	804.87378	-900.89069	
6197	61.960	-775.90314	47.56587	-630.37128	796.68103	52.16949	-623.57275	-692.52197	-23.20022	505.32904	725.04163	-23.59396	591.36035	6.75162	803.37115	-902.51666	
